<svg width="860.000000" height="30.000000" viewBox="0 0 860 30" fill="none" xmlns="http://www.w3.org/2000/svg" xmlns:xlink="http://www.w3.org/1999/xlink">
	<desc>
			Created with Pixso.
	</desc>
	<defs/>
	<path id="BRIX Templates" d="M347.332 21L347.332 8.40088L351.761 8.40088Q353.093 8.40088 353.963 8.82275Q354.837 9.24463 355.268 9.97412Q355.703 10.7036 355.703 11.6045Q355.703 12.8262 355.044 13.5293Q354.389 14.2324 353.471 14.5005Q354.174 14.6279 354.75 15.063Q355.325 15.4937 355.655 16.144Q355.989 16.79 355.989 17.5635Q355.989 18.5171 355.519 19.2993Q355.053 20.0815 354.134 20.543Q353.216 21 351.902 21L347.332 21ZM348.843 13.9072L351.651 13.9072Q352.86 13.9072 353.506 13.3403Q354.152 12.7734 354.152 11.7671Q354.152 10.8135 353.515 10.2378Q352.877 9.66211 351.599 9.66211L348.843 9.66211L348.843 13.9072ZM348.843 19.7388L351.744 19.7388Q353.04 19.7388 353.739 19.1367Q354.442 18.5347 354.442 17.4536Q354.442 16.3901 353.704 15.7529Q352.965 15.1157 351.704 15.1157L348.843 15.1157L348.843 19.7388ZM358.168 21L358.168 8.40088L362.237 8.40088Q363.713 8.40088 364.649 8.88867Q365.586 9.37207 366.034 10.2202Q366.482 11.064 366.482 12.0879Q366.482 13.2788 365.845 14.2324Q365.208 15.186 363.854 15.5815L366.609 21L364.83 21L362.272 15.7969L362.162 15.7969L359.679 15.7969L359.679 21L358.168 21ZM359.679 14.6104L362.127 14.6104Q363.586 14.6104 364.25 13.9072Q364.918 13.2041 364.918 12.1099Q364.918 10.9937 364.258 10.3389Q363.604 9.67969 362.109 9.67969L359.679 9.67969L359.679 14.6104ZM368.842 21L368.842 8.40088L370.353 8.40088L370.353 21L368.842 21ZM372.372 21L376.221 14.6455L372.372 8.40088L374.081 8.40088L377.175 13.4414L380.128 8.40088L381.82 8.40088L377.97 14.7158L381.837 21L380.128 21L377.012 15.9419L374.081 21L372.372 21ZM391.577 21L391.577 9.64014L387.815 9.64014L387.815 8.40088L396.85 8.40088L396.85 9.64014L393.088 9.64014L393.088 21L391.577 21ZM401.008 21.2153Q399.729 21.2153 398.74 20.6309Q397.751 20.0464 397.185 19.0049Q396.618 17.959 396.618 16.5352Q396.618 15.1333 397.176 14.0786Q397.734 13.0239 398.731 12.4395Q399.729 11.855 401.043 11.855Q402.339 11.855 403.284 12.4395Q404.229 13.0239 404.734 13.9819Q405.24 14.9355 405.24 16.0342Q405.24 16.2319 405.227 16.4297Q405.218 16.6274 405.218 16.8779L398.112 16.8779Q398.165 17.9019 398.586 18.5786Q399.008 19.2554 399.646 19.5981Q400.287 19.9365 401.008 19.9365Q401.944 19.9365 402.572 19.5059Q403.205 19.0752 403.491 18.3369L404.985 18.3369Q404.625 19.5762 403.605 20.3979Q402.59 21.2153 401.008 21.2153ZM401.008 13.1338Q399.927 13.1338 399.087 13.793Q398.252 14.4478 398.129 15.709L403.746 15.709Q403.689 14.5005 402.915 13.8193Q402.142 13.1338 401.008 13.1338ZM407.238 21L407.238 12.0703L408.604 12.0703L408.71 13.3667Q409.145 12.646 409.861 12.2505Q410.582 11.855 411.483 11.855Q412.546 11.855 413.311 12.29Q414.076 12.7207 414.489 13.604Q414.959 12.791 415.776 12.3252Q416.598 11.855 417.552 11.855Q419.151 11.855 420.105 12.8218Q421.058 13.7842 421.058 15.7793L421.058 21L419.564 21L419.564 15.9419Q419.564 14.5576 419.006 13.8545Q418.448 13.1514 417.407 13.1514Q416.326 13.1514 415.614 13.9907Q414.906 14.8257 414.906 16.3726L414.906 21L413.39 21L413.39 15.9419Q413.39 14.5576 412.832 13.8545Q412.278 13.1514 411.232 13.1514Q410.169 13.1514 409.457 13.9907Q408.749 14.8257 408.749 16.3726L408.749 21L407.238 21ZM423.348 24.9595L423.348 12.0703L424.714 12.0703L424.859 13.5469Q425.29 12.9009 426.09 12.3779Q426.894 11.855 428.133 11.855Q429.465 11.855 430.454 12.4702Q431.447 13.0811 431.996 14.1445Q432.545 15.2036 432.545 16.5527Q432.545 17.9019 431.996 18.9565Q431.447 20.0112 430.445 20.6133Q429.447 21.2153 428.116 21.2153Q427.017 21.2153 426.16 20.7671Q425.308 20.3145 424.859 19.5059L424.859 24.9595L423.348 24.9595ZM427.953 19.9014Q428.854 19.9014 429.535 19.4795Q430.221 19.0576 430.616 18.3018Q431.016 17.5459 431.016 16.5352Q431.016 15.5288 430.616 14.7729Q430.221 14.0171 429.535 13.5952Q428.854 13.1689 427.953 13.1689Q427.052 13.1689 426.367 13.5952Q425.686 14.0171 425.29 14.7729Q424.895 15.5288 424.895 16.5352Q424.895 17.5459 425.29 18.3018Q425.686 19.0576 426.367 19.4795Q427.052 19.9014 427.953 19.9014ZM434.652 21L434.652 8.04053L436.163 8.04053L436.163 21L434.652 21ZM441.614 21.2153Q440.502 21.2153 439.764 20.8374Q439.026 20.4595 438.665 19.8311Q438.305 19.1982 438.305 18.46Q438.305 17.0933 439.346 16.355Q440.392 15.6167 442.194 15.6167L444.602 15.6167L444.602 15.5112Q444.602 14.3379 443.991 13.7358Q443.381 13.1338 442.352 13.1338Q441.473 13.1338 440.832 13.5776Q440.195 14.0171 440.032 14.8608L438.485 14.8608Q438.573 13.8896 439.14 13.2261Q439.707 12.5581 440.55 12.2065Q441.399 11.855 442.352 11.855Q444.224 11.855 445.169 12.8569Q446.114 13.8545 446.114 15.5112L446.114 21L444.765 21L444.677 19.396Q444.299 20.1519 443.57 20.6836Q442.84 21.2153 441.614 21.2153ZM441.851 19.9365Q442.713 19.9365 443.332 19.4883Q443.956 19.04 444.277 18.3193Q444.602 17.5986 444.602 16.8076L444.602 16.79L442.317 16.79Q440.986 16.79 440.436 17.2471Q439.887 17.7041 439.887 18.3896Q439.887 19.0928 440.401 19.5146Q440.915 19.9365 441.851 19.9365ZM451.658 21Q450.436 21 449.733 20.4067Q449.03 19.8135 449.03 18.2622L449.03 13.3491L447.483 13.3491L447.483 12.0703L449.03 12.0703L449.228 9.93018L450.542 9.93018L450.542 12.0703L453.174 12.0703L453.174 13.3491L450.542 13.3491L450.542 18.2622Q450.542 19.1104 450.885 19.4092Q451.227 19.7036 452.093 19.7036L453.029 19.7036L453.029 21L451.658 21ZM458.86 21.2153Q457.581 21.2153 456.592 20.6309Q455.604 20.0464 455.037 19.0049Q454.47 17.959 454.47 16.5352Q454.47 15.1333 455.028 14.0786Q455.586 13.0239 456.583 12.4395Q457.581 11.855 458.895 11.855Q460.191 11.855 461.136 12.4395Q462.081 13.0239 462.586 13.9819Q463.092 14.9355 463.092 16.0342Q463.092 16.2319 463.079 16.4297Q463.07 16.6274 463.07 16.8779L455.964 16.8779Q456.017 17.9019 456.438 18.5786Q456.86 19.2554 457.498 19.5981Q458.139 19.9365 458.86 19.9365Q459.796 19.9365 460.424 19.5059Q461.057 19.0752 461.343 18.3369L462.837 18.3369Q462.477 19.5762 461.457 20.3979Q460.442 21.2153 458.86 21.2153ZM458.86 13.1338Q457.779 13.1338 456.939 13.793Q456.104 14.4478 455.981 15.709L461.598 15.709Q461.541 14.5005 460.767 13.8193Q459.994 13.1338 458.86 13.1338ZM468.509 21.2153Q466.905 21.2153 465.841 20.4067Q464.782 19.5981 464.602 18.2095L466.149 18.2095Q466.294 18.9126 466.896 19.4268Q467.498 19.9365 468.526 19.9365Q469.48 19.9365 469.928 19.5322Q470.381 19.1279 470.381 18.5698Q470.381 17.7612 469.796 17.4932Q469.212 17.2207 468.148 17.0054Q467.428 16.8604 466.707 16.5923Q465.986 16.3198 465.498 15.8276Q465.015 15.3311 465.015 14.5181Q465.015 13.3491 465.889 12.6021Q466.764 11.855 468.258 11.855Q469.678 11.855 470.587 12.5669Q471.497 13.2788 471.642 14.5928L470.148 14.5928Q470.055 13.9072 469.559 13.5205Q469.067 13.1338 468.236 13.1338Q467.428 13.1338 466.984 13.4766Q466.544 13.8193 466.544 14.3774Q466.544 14.918 467.111 15.2256Q467.678 15.5288 468.654 15.7441Q469.48 15.9243 470.227 16.188Q470.974 16.4473 471.449 16.9614Q471.928 17.4712 471.928 18.4424Q471.945 19.6509 471.018 20.4331Q470.091 21.2153 468.509 21.2153Z" fill="#090909" fill-opacity="1.000000" fill-rule="evenodd"/>
	<path id="Webflow" d="M597.924 21.0176L594.466 8.40088L596.087 8.40088L598.808 19.2158L601.901 8.40088L603.576 8.40088L606.582 19.2158L609.337 8.40088L610.954 8.40088L607.43 21L605.698 21L602.692 10.5981L599.616 21L597.924 21.0176ZM615.744 21.2153Q614.465 21.2153 613.476 20.6309Q612.487 20.0464 611.921 19.0049Q611.354 17.959 611.354 16.5352Q611.354 15.1333 611.912 14.0786Q612.47 13.0239 613.467 12.4395Q614.465 11.855 615.779 11.855Q617.075 11.855 618.02 12.4395Q618.965 13.0239 619.47 13.9819Q619.976 14.9355 619.976 16.0342Q619.976 16.2319 619.963 16.4297Q619.954 16.6274 619.954 16.8779L612.848 16.8779Q612.901 17.9019 613.322 18.5786Q613.744 19.2554 614.382 19.5981Q615.023 19.9365 615.744 19.9365Q616.68 19.9365 617.308 19.5059Q617.941 19.0752 618.227 18.3369L619.721 18.3369Q619.361 19.5762 618.341 20.3979Q617.326 21.2153 615.744 21.2153ZM615.744 13.1338Q614.663 13.1338 613.823 13.793Q612.988 14.4478 612.865 15.709L618.482 15.709Q618.424 14.5005 617.651 13.8193Q616.878 13.1338 615.744 13.1338ZM626.742 21.2153Q625.643 21.2153 624.786 20.7671Q623.934 20.3145 623.485 19.5059L623.34 21L621.974 21L621.974 8.04053L623.485 8.04053L623.485 13.5469Q623.916 12.9009 624.716 12.3779Q625.52 11.855 626.759 11.855Q628.091 11.855 629.08 12.4702Q630.073 13.0811 630.622 14.1445Q631.171 15.2036 631.171 16.5527Q631.171 17.9019 630.622 18.9565Q630.073 20.0112 629.071 20.6133Q628.073 21.2153 626.742 21.2153ZM626.579 19.9014Q627.48 19.9014 628.161 19.4795Q628.847 19.0576 629.242 18.3018Q629.642 17.5459 629.642 16.5352Q629.642 15.5288 629.242 14.7729Q628.847 14.0171 628.161 13.5952Q627.48 13.1689 626.579 13.1689Q625.678 13.1689 624.993 13.5952Q624.312 14.0171 623.916 14.7729Q623.521 15.5288 623.521 16.5352Q623.521 17.5459 623.916 18.3018Q624.312 19.0576 624.993 19.4795Q625.678 19.9014 626.579 19.9014ZM633.761 21L633.761 13.3491L632.412 13.3491L632.412 12.0703L633.761 12.0703L633.761 10.5234Q633.761 9.22705 634.407 8.63379Q635.057 8.04053 636.301 8.04053L637.202 8.04053L637.202 9.33691L636.534 9.33691Q635.848 9.33691 635.558 9.61816Q635.273 9.89502 635.273 10.5586L635.273 12.0703L637.47 12.0703L637.47 13.3491L635.273 13.3491L635.273 21L633.761 21ZM639.272 21L639.272 8.04053L640.784 8.04053L640.784 21L639.272 21ZM647.333 21.2153Q646.076 21.2153 645.065 20.6396Q644.059 20.064 643.474 19.0137Q642.89 17.959 642.89 16.5352Q642.89 15.1157 643.483 14.061Q644.076 13.0063 645.091 12.4307Q646.111 11.855 647.372 11.855Q648.629 11.855 649.635 12.4307Q650.646 13.0063 651.231 14.061Q651.815 15.1157 651.815 16.5352Q651.815 17.959 651.222 19.0137Q650.628 20.064 649.609 20.6396Q648.594 21.2153 647.333 21.2153ZM647.333 19.9189Q648.106 19.9189 648.774 19.541Q649.442 19.1631 649.855 18.4072Q650.268 17.6514 650.268 16.5352Q650.268 15.4189 649.864 14.6631Q649.46 13.9072 648.792 13.5293Q648.128 13.1514 647.372 13.1514Q646.594 13.1514 645.926 13.5293Q645.263 13.9072 644.85 14.6631Q644.437 15.4189 644.437 16.5352Q644.437 17.6514 644.85 18.4072Q645.263 19.1631 645.918 19.541Q646.577 19.9189 647.333 19.9189ZM655.379 21L652.769 12.0703L654.28 12.0703L656.17 19.0752L658.262 12.0703L659.971 12.0703L662.076 19.0752L663.948 12.0703L665.478 12.0703L662.867 21L661.32 21L659.123 13.6392L656.926 21L655.379 21Z" fill="#090909" fill-opacity="1.000000" fill-rule="evenodd"/>
	<path id="- Powered by" d="M474.063 16.4121L474.063 15.1333L481.191 15.1333L481.191 16.4121L474.063 16.4121ZM488.336 21L488.336 8.40088L492.475 8.40088Q493.952 8.40088 494.905 8.88867Q495.859 9.37207 496.316 10.2026Q496.777 11.0288 496.777 12.0703Q496.777 13.0986 496.325 13.9292Q495.877 14.7554 494.923 15.252Q493.969 15.7441 492.475 15.7441L489.847 15.7441L489.847 21L488.336 21ZM489.847 14.4653L492.44 14.4653Q493.952 14.4653 494.589 13.8281Q495.231 13.1865 495.231 12.0703Q495.231 10.9365 494.589 10.2993Q493.952 9.66211 492.44 9.66211L489.847 9.66211L489.847 14.4653ZM502.213 21.2153Q500.956 21.2153 499.945 20.6396Q498.939 20.064 498.354 19.0137Q497.77 17.959 497.77 16.5352Q497.77 15.1157 498.363 14.061Q498.956 13.0063 499.971 12.4307Q500.991 11.855 502.252 11.855Q503.509 11.855 504.515 12.4307Q505.526 13.0063 506.111 14.061Q506.695 15.1157 506.695 16.5352Q506.695 17.959 506.102 19.0137Q505.508 20.064 504.489 20.6396Q503.474 21.2153 502.213 21.2153ZM502.213 19.9189Q502.986 19.9189 503.654 19.541Q504.322 19.1631 504.735 18.4072Q505.148 17.6514 505.148 16.5352Q505.148 15.4189 504.744 14.6631Q504.34 13.9072 503.672 13.5293Q503.008 13.1514 502.252 13.1514Q501.474 13.1514 500.806 13.5293Q500.143 13.9072 499.73 14.6631Q499.317 15.4189 499.317 16.5352Q499.317 17.6514 499.73 18.4072Q500.143 19.1631 500.798 19.541Q501.457 19.9189 502.213 19.9189ZM510.259 21L507.649 12.0703L509.16 12.0703L511.05 19.0752L513.142 12.0703L514.851 12.0703L516.956 19.0752L518.828 12.0703L520.358 12.0703L517.747 21L516.2 21L514.003 13.6392L511.806 21L510.259 21ZM525.704 21.2153Q524.425 21.2153 523.436 20.6309Q522.448 20.0464 521.881 19.0049Q521.314 17.959 521.314 16.5352Q521.314 15.1333 521.872 14.0786Q522.43 13.0239 523.427 12.4395Q524.425 11.855 525.739 11.855Q527.035 11.855 527.98 12.4395Q528.925 13.0239 529.43 13.9819Q529.936 14.9355 529.936 16.0342Q529.936 16.2319 529.923 16.4297Q529.914 16.6274 529.914 16.8779L522.808 16.8779Q522.861 17.9019 523.282 18.5786Q523.704 19.2554 524.342 19.5981Q524.983 19.9365 525.704 19.9365Q526.64 19.9365 527.268 19.5059Q527.901 19.0752 528.187 18.3369L529.681 18.3369Q529.321 19.5762 528.301 20.3979Q527.286 21.2153 525.704 21.2153ZM525.704 13.1338Q524.623 13.1338 523.783 13.793Q522.948 14.4478 522.825 15.709L528.442 15.709Q528.385 14.5005 527.611 13.8193Q526.838 13.1338 525.704 13.1338ZM531.934 21L531.934 12.0703L533.3 12.0703L533.428 13.7842Q533.841 12.9009 534.685 12.3779Q535.533 11.855 536.772 11.855L536.772 13.4414L536.359 13.4414Q535.568 13.4414 534.9 13.7227Q534.236 13.9995 533.841 14.6675Q533.445 15.3311 533.445 16.5L533.445 21L531.934 21ZM542.138 21.2153Q540.859 21.2153 539.87 20.6309Q538.882 20.0464 538.315 19.0049Q537.748 17.959 537.748 16.5352Q537.748 15.1333 538.306 14.0786Q538.864 13.0239 539.862 12.4395Q540.859 11.855 542.173 11.855Q543.469 11.855 544.414 12.4395Q545.359 13.0239 545.864 13.9819Q546.37 14.9355 546.37 16.0342Q546.37 16.2319 546.357 16.4297Q546.348 16.6274 546.348 16.8779L539.242 16.8779Q539.295 17.9019 539.716 18.5786Q540.138 19.2554 540.776 19.5981Q541.417 19.9365 542.138 19.9365Q543.074 19.9365 543.702 19.5059Q544.335 19.0752 544.621 18.3369L546.115 18.3369Q545.755 19.5762 544.735 20.3979Q543.72 21.2153 542.138 21.2153ZM542.138 13.1338Q541.057 13.1338 540.217 13.793Q539.383 14.4478 539.259 15.709L544.876 15.709Q544.819 14.5005 544.045 13.8193Q543.272 13.1338 542.138 13.1338ZM552.415 21.2153Q551.083 21.2153 550.082 20.6045Q549.084 19.9937 548.535 18.9302Q547.99 17.8667 547.99 16.5176Q547.99 15.1685 548.548 14.1182Q549.106 13.0635 550.095 12.4614Q551.083 11.855 552.433 11.855Q553.531 11.855 554.375 12.3076Q555.223 12.7559 555.693 13.5645L555.693 8.04053L557.205 8.04053L557.205 21L555.834 21L555.693 19.5234Q555.258 20.1738 554.45 20.6968Q553.641 21.2153 552.415 21.2153ZM552.578 19.9014Q553.479 19.9014 554.168 19.4795Q554.863 19.0576 555.25 18.3018Q555.636 17.5459 555.636 16.5352Q555.636 15.5288 555.25 14.7729Q554.863 14.0171 554.168 13.5952Q553.479 13.1689 552.578 13.1689Q551.694 13.1689 551 13.5952Q550.31 14.0171 549.923 14.7729Q549.537 15.5288 549.537 16.5352Q549.537 17.5459 549.923 18.3018Q550.31 19.0576 551 19.4795Q551.694 19.9014 552.578 19.9014ZM569.21 21.2153Q568.111 21.2153 567.254 20.7671Q566.402 20.3145 565.953 19.5059L565.808 21L564.442 21L564.442 8.04053L565.953 8.04053L565.953 13.5469Q566.384 12.9009 567.184 12.3779Q567.988 11.855 569.227 11.855Q570.559 11.855 571.548 12.4702Q572.541 13.0811 573.09 14.1445Q573.639 15.2036 573.639 16.5527Q573.639 17.9019 573.09 18.9565Q572.541 20.0112 571.539 20.6133Q570.541 21.2153 569.21 21.2153ZM569.047 19.9014Q569.948 19.9014 570.629 19.4795Q571.315 19.0576 571.71 18.3018Q572.11 17.5459 572.11 16.5352Q572.11 15.5288 571.71 14.7729Q571.315 14.0171 570.629 13.5952Q569.948 13.1689 569.047 13.1689Q568.146 13.1689 567.461 13.5952Q566.78 14.0171 566.384 14.7729Q565.989 15.5288 565.989 16.5352Q565.989 17.5459 566.384 18.3018Q566.78 19.0576 567.461 19.4795Q568.146 19.9014 569.047 19.9014ZM575.997 24.9595L578.212 20.1343L577.689 20.1343L574.142 12.0703L575.781 12.0703L578.73 19.0181L581.864 12.0703L583.428 12.0703L577.579 24.9595L575.997 24.9595Z" fill="#6E6E6E" fill-opacity="1.000000" fill-rule="evenodd"/>
	<path id="Copyright © Philanthropy X | Designed by" d="M6.85986 21.2153Q5.00537 21.2153 3.66064 20.3979Q2.32031 19.5762 1.58203 18.1128Q0.848145 16.645 0.848145 14.6982Q0.848145 12.7734 1.58203 11.3057Q2.32031 9.83789 3.66064 9.01172Q5.00537 8.18555 6.85986 8.18555Q9.01758 8.18555 10.3755 9.22266Q11.7378 10.2554 12.1157 12.1099L10.4414 12.1099Q10.1514 10.9365 9.25928 10.229Q8.37158 9.51709 6.85986 9.51709Q5.50635 9.51709 4.5 10.1367Q3.49365 10.7563 2.94434 11.9209Q2.39502 13.0811 2.39502 14.6982Q2.39502 16.3198 2.94434 17.48Q3.49365 18.6401 4.5 19.2642Q5.50635 19.8838 6.85986 19.8838Q8.37158 19.8838 9.25928 19.1938Q10.1514 18.4995 10.4414 17.3481L12.1157 17.3481Q11.7378 19.1631 10.3755 20.1914Q9.01758 21.2153 6.85986 21.2153ZM18.2686 21.2153Q17.0118 21.2153 16.001 20.6396Q14.9947 20.064 14.4102 19.0137Q13.8257 17.959 13.8257 16.5352Q13.8257 15.1157 14.419 14.061Q15.0122 13.0063 16.0274 12.4307Q17.0469 11.855 18.3081 11.855Q19.565 11.855 20.5713 12.4307Q21.5821 13.0063 22.1665 14.061Q22.751 15.1157 22.751 16.5352Q22.751 17.959 22.1578 19.0137Q21.5645 20.064 20.545 20.6396Q19.5298 21.2153 18.2686 21.2153ZM18.2686 19.9189Q19.042 19.9189 19.71 19.541Q20.378 19.1631 20.7911 18.4072Q21.2041 17.6514 21.2041 16.5352Q21.2041 15.4189 20.7998 14.6631Q20.3955 13.9072 19.7276 13.5293Q19.064 13.1514 18.3081 13.1514Q17.5303 13.1514 16.8623 13.5293Q16.1988 13.9072 15.7857 14.6631Q15.3726 15.4189 15.3726 16.5352Q15.3726 17.6514 15.7857 18.4072Q16.1988 19.1631 16.8536 19.541Q17.5127 19.9189 18.2686 19.9189ZM24.8596 24.9595L24.8596 12.0703L26.2263 12.0703L26.3714 13.5469Q26.802 12.9009 27.6018 12.3779Q28.406 11.855 29.6453 11.855Q30.9768 11.855 31.9656 12.4702Q32.9588 13.0811 33.5081 14.1445Q34.0574 15.2036 34.0574 16.5527Q34.0574 17.9019 33.5081 18.9565Q32.9588 20.0112 31.9568 20.6133Q30.9593 21.2153 29.6277 21.2153Q28.5291 21.2153 27.6721 20.7671Q26.8196 20.3145 26.3714 19.5059L26.3714 24.9595L24.8596 24.9595ZM29.4651 19.9014Q30.366 19.9014 31.0471 19.4795Q31.7327 19.0576 32.1282 18.3018Q32.5281 17.5459 32.5281 16.5352Q32.5281 15.5288 32.1282 14.7729Q31.7327 14.0171 31.0471 13.5952Q30.366 13.1689 29.4651 13.1689Q28.5642 13.1689 27.8787 13.5952Q27.1975 14.0171 26.802 14.7729Q26.4065 15.5288 26.4065 16.5352Q26.4065 17.5459 26.802 18.3018Q27.1975 19.0576 27.8787 19.4795Q28.5642 19.9014 29.4651 19.9014ZM36.4148 24.9595L38.6297 20.1343L38.1067 20.1343L34.5603 12.0703L36.1995 12.0703L39.1482 19.0181L42.2815 12.0703L43.846 12.0703L37.9969 24.9595L36.4148 24.9595ZM45.4516 21L45.4516 12.0703L46.8183 12.0703L46.9458 13.7842Q47.3589 12.9009 48.2026 12.3779Q49.0508 11.855 50.29 11.855L50.29 13.4414L49.8769 13.4414Q49.0859 13.4414 48.418 13.7227Q47.7544 13.9995 47.3589 14.6675Q46.9634 15.3311 46.9634 16.5L46.9634 21L45.4516 21ZM52.9041 10.0928Q52.4515 10.0928 52.1526 9.79834Q51.8582 9.49951 51.8582 9.04688Q51.8582 8.61621 52.1526 8.33057Q52.4515 8.04053 52.9041 8.04053Q53.3348 8.04053 53.638 8.33057Q53.9456 8.61621 53.9456 9.04688Q53.9456 9.49951 53.638 9.79834Q53.3348 10.0928 52.9041 10.0928ZM52.1439 21L52.1439 12.0703L53.66 12.0703L53.66 21L52.1439 21ZM59.8121 18.1919Q59.0562 18.1919 58.4278 17.9941L57.5269 18.8379Q57.7247 18.9829 58.0191 19.084Q58.3179 19.1807 58.876 19.2642Q59.4341 19.3433 60.4449 19.4355Q62.2422 19.5586 63.0157 20.2617Q63.7935 20.9648 63.7935 22.0986Q63.7935 22.8721 63.3672 23.5708Q62.9454 24.2739 62.0709 24.7222Q61.2007 25.1748 59.834 25.1748Q58.6255 25.1748 57.6895 24.8584Q56.7535 24.5464 56.2305 23.9048Q55.712 23.2676 55.712 22.2964Q55.712 21.791 55.98 21.2065Q56.2481 20.6221 56.9864 20.0991Q56.5909 19.9365 56.3096 19.7476Q56.0328 19.5586 55.7999 19.3257L55.7999 18.9126L57.3292 17.4009Q56.2701 16.5 56.2701 15.0234Q56.2701 14.1401 56.6832 13.4238Q57.0962 12.7031 57.8873 12.2812Q58.6783 11.855 59.8121 11.855Q60.5899 11.855 61.2183 12.0703L64.5098 12.0703L64.5098 13.2041L62.8399 13.2788Q63.3585 14.0347 63.3585 15.0234Q63.3585 15.9067 62.9366 16.6274Q62.5147 17.3481 61.7281 17.77Q60.9459 18.1919 59.8121 18.1919ZM59.8121 16.9482Q60.7701 16.9482 61.337 16.4561Q61.9039 15.9595 61.9039 15.0234Q61.9039 14.105 61.337 13.6128Q60.7701 13.1162 59.8121 13.1162Q58.8409 13.1162 58.274 13.6128Q57.7071 14.105 57.7071 15.0234Q57.7071 15.9595 58.274 16.4561Q58.8409 16.9482 59.8121 16.9482ZM57.1841 22.1514Q57.1841 23.0522 57.94 23.4917Q58.6959 23.9355 59.834 23.9355Q60.9459 23.9355 61.6226 23.4478Q62.2994 22.96 62.2994 22.1514Q62.2994 21.5757 61.8292 21.1538Q61.3633 20.7319 60.1021 20.6572Q59.1133 20.5869 58.3926 20.4771Q57.6544 20.8726 57.417 21.3296Q57.1841 21.791 57.1841 22.1514ZM66.2236 21L66.2236 8.04053L67.7354 8.04053L67.7354 13.604Q68.1836 12.7734 69.0098 12.3164Q69.8403 11.855 70.8115 11.855Q72.3584 11.855 73.2944 12.8218Q74.2305 13.7842 74.2305 15.7793L74.2305 21L72.7363 21L72.7363 15.9419Q72.7363 13.1514 70.4863 13.1514Q69.3174 13.1514 68.5264 13.9907Q67.7354 14.8257 67.7354 16.3726L67.7354 21L66.2236 21ZM80.0441 21Q78.8224 21 78.1193 20.4067Q77.4161 19.8135 77.4161 18.2622L77.4161 13.3491L75.8693 13.3491L75.8693 12.0703L77.4161 12.0703L77.6139 9.93018L78.9278 9.93018L78.9278 12.0703L81.5602 12.0703L81.5602 13.3491L78.9278 13.3491L78.9278 18.2622Q78.9278 19.1104 79.2706 19.4092Q79.6134 19.7036 80.4791 19.7036L81.4152 19.7036L81.4152 21L80.0441 21ZM94.1575 21.0703Q92.303 21.0703 90.8968 20.2529Q89.4949 19.4355 88.7127 17.9941Q87.9304 16.5527 87.9304 14.6982Q87.9304 12.8262 88.7127 11.3892Q89.4949 9.94775 90.8968 9.13916Q92.303 8.32617 94.1575 8.32617Q96.012 8.32617 97.4138 9.13916Q98.8201 9.94775 99.6023 11.3892Q100.385 12.8262 100.385 14.6982Q100.385 16.5527 99.6023 17.9941Q98.8201 19.4355 97.4138 20.2529Q96.012 21.0703 94.1575 21.0703ZM94.1575 20.4067Q95.8494 20.4067 97.0886 19.686Q98.3323 18.9653 99.0091 17.6689Q99.6858 16.3726 99.6858 14.6982Q99.6858 12.9888 99.0091 11.7056Q98.3323 10.418 97.0886 9.69727Q95.8494 8.97656 94.1575 8.97656Q92.4656 8.97656 91.2219 9.69727Q89.9827 10.418 89.3059 11.7056Q88.6336 12.9888 88.6336 14.6982Q88.6336 16.3726 89.3059 17.6689Q89.9827 18.9653 91.2219 19.686Q92.4656 20.4067 94.1575 20.4067ZM94.1575 18.8599Q93.0764 18.8599 92.1931 18.3721Q91.3142 17.8843 90.7825 16.9395Q90.2508 15.9946 90.2508 14.6807Q90.2508 13.3667 90.7825 12.4307Q91.3142 11.4946 92.1931 11.0024Q93.0764 10.5059 94.1575 10.5059Q95.489 10.5059 96.4954 11.2178Q97.5061 11.9297 97.8489 13.2612L96.4602 13.2612Q96.2097 12.4482 95.5769 12.0264Q94.9485 11.6045 94.1399 11.6045Q93.094 11.6045 92.3382 12.3779Q91.5823 13.1514 91.5823 14.6982Q91.5823 16.2319 92.3382 17.0054Q93.094 17.7788 94.1399 17.7788Q95.9021 17.7788 96.4602 16.1396L97.8489 16.1396Q97.5061 17.4009 96.4954 18.1304Q95.489 18.8599 94.1575 18.8599ZM107.406 21L107.406 8.40088L111.545 8.40088Q113.022 8.40088 113.975 8.88867Q114.929 9.37207 115.386 10.2026Q115.847 11.0288 115.847 12.0703Q115.847 13.0986 115.395 13.9292Q114.947 14.7554 113.993 15.252Q113.039 15.7441 111.545 15.7441L108.917 15.7441L108.917 21L107.406 21ZM108.917 14.4653L111.51 14.4653Q113.022 14.4653 113.659 13.8281Q114.301 13.1865 114.301 12.0703Q114.301 10.9365 113.659 10.2993Q113.022 9.66211 111.51 9.66211L108.917 9.66211L108.917 14.4653ZM117.74 21L117.74 8.04053L119.251 8.04053L119.251 13.604Q119.7 12.7734 120.526 12.3164Q121.356 11.855 122.328 11.855Q123.874 11.855 124.81 12.8218Q125.746 13.7842 125.746 15.7793L125.746 21L124.252 21L124.252 15.9419Q124.252 13.1514 122.002 13.1514Q120.833 13.1514 120.042 13.9907Q119.251 14.8257 119.251 16.3726L119.251 21L117.74 21ZM128.954 10.0928Q128.501 10.0928 128.203 9.79834Q127.908 9.49951 127.908 9.04688Q127.908 8.61621 128.203 8.33057Q128.501 8.04053 128.954 8.04053Q129.385 8.04053 129.688 8.33057Q129.996 8.61621 129.996 9.04688Q129.996 9.49951 129.688 9.79834Q129.385 10.0928 128.954 10.0928ZM128.194 21L128.194 12.0703L129.71 12.0703L129.71 21L128.194 21ZM132.338 21L132.338 8.04053L133.849 8.04053L133.849 21L132.338 21ZM139.3 21.2153Q138.188 21.2153 137.45 20.8374Q136.712 20.4595 136.351 19.8311Q135.991 19.1982 135.991 18.46Q135.991 17.0933 137.032 16.355Q138.078 15.6167 139.88 15.6167L142.288 15.6167L142.288 15.5112Q142.288 14.3379 141.677 13.7358Q141.067 13.1338 140.038 13.1338Q139.159 13.1338 138.518 13.5776Q137.881 14.0171 137.718 14.8608L136.171 14.8608Q136.259 13.8896 136.826 13.2261Q137.393 12.5581 138.236 12.2065Q139.085 11.855 140.038 11.855Q141.91 11.855 142.855 12.8569Q143.8 13.8545 143.8 15.5112L143.8 21L142.451 21L142.363 19.396Q141.985 20.1519 141.256 20.6836Q140.526 21.2153 139.3 21.2153ZM139.537 19.9365Q140.399 19.9365 141.018 19.4883Q141.642 19.04 141.963 18.3193Q142.288 17.5986 142.288 16.8076L142.288 16.79L140.003 16.79Q138.672 16.79 138.122 17.2471Q137.573 17.7041 137.573 18.3896Q137.573 19.0928 138.087 19.5146Q138.601 19.9365 139.537 19.9365ZM146.072 21L146.072 12.0703L147.438 12.0703L147.526 13.6743Q147.961 12.8262 148.77 12.3428Q149.578 11.855 150.607 11.855Q152.189 11.855 153.134 12.8218Q154.078 13.7842 154.078 15.7793L154.078 21L152.567 21L152.567 15.9419Q152.567 13.1514 150.264 13.1514Q149.113 13.1514 148.348 13.9907Q147.583 14.8257 147.583 16.3726L147.583 21L146.072 21ZM159.892 21Q158.67 21 157.967 20.4067Q157.264 19.8135 157.264 18.2622L157.264 13.3491L155.717 13.3491L155.717 12.0703L157.264 12.0703L157.462 9.93018L158.776 9.93018L158.776 12.0703L161.408 12.0703L161.408 13.3491L158.776 13.3491L158.776 18.2622Q158.776 19.1104 159.119 19.4092Q159.461 19.7036 160.327 19.7036L161.263 19.7036L161.263 21L159.892 21ZM163.334 21L163.334 8.04053L164.845 8.04053L164.845 13.604Q165.294 12.7734 166.12 12.3164Q166.95 11.855 167.922 11.855Q169.468 11.855 170.404 12.8218Q171.34 13.7842 171.34 15.7793L171.34 21L169.846 21L169.846 15.9419Q169.846 13.1514 167.596 13.1514Q166.427 13.1514 165.636 13.9907Q164.845 14.8257 164.845 16.3726L164.845 21L163.334 21ZM173.63 21L173.63 12.0703L174.996 12.0703L175.124 13.7842Q175.537 12.9009 176.381 12.3779Q177.229 11.855 178.468 11.855L178.468 13.4414L178.055 13.4414Q177.264 13.4414 176.596 13.7227Q175.932 13.9995 175.537 14.6675Q175.141 15.3311 175.141 16.5L175.141 21L173.63 21ZM183.887 21.2153Q182.63 21.2153 181.619 20.6396Q180.613 20.064 180.028 19.0137Q179.444 17.959 179.444 16.5352Q179.444 15.1157 180.037 14.061Q180.63 13.0063 181.645 12.4307Q182.665 11.855 183.926 11.855Q185.183 11.855 186.189 12.4307Q187.2 13.0063 187.785 14.061Q188.369 15.1157 188.369 16.5352Q188.369 17.959 187.776 19.0137Q187.182 20.064 186.163 20.6396Q185.148 21.2153 183.887 21.2153ZM183.887 19.9189Q184.66 19.9189 185.328 19.541Q185.996 19.1631 186.409 18.4072Q186.822 17.6514 186.822 16.5352Q186.822 15.4189 186.418 14.6631Q186.014 13.9072 185.346 13.5293Q184.682 13.1514 183.926 13.1514Q183.148 13.1514 182.48 13.5293Q181.817 13.9072 181.404 14.6631Q180.991 15.4189 180.991 16.5352Q180.991 17.6514 181.404 18.4072Q181.817 19.1631 182.472 19.541Q183.131 19.9189 183.887 19.9189ZM190.478 24.9595L190.478 12.0703L191.844 12.0703L191.989 13.5469Q192.42 12.9009 193.22 12.3779Q194.024 11.855 195.263 11.855Q196.595 11.855 197.584 12.4702Q198.577 13.0811 199.126 14.1445Q199.675 15.2036 199.675 16.5527Q199.675 17.9019 199.126 18.9565Q198.577 20.0112 197.575 20.6133Q196.577 21.2153 195.246 21.2153Q194.147 21.2153 193.29 20.7671Q192.438 20.3145 191.989 19.5059L191.989 24.9595L190.478 24.9595ZM195.083 19.9014Q195.984 19.9014 196.665 19.4795Q197.351 19.0576 197.746 18.3018Q198.146 17.5459 198.146 16.5352Q198.146 15.5288 197.746 14.7729Q197.351 14.0171 196.665 13.5952Q195.984 13.1689 195.083 13.1689Q194.182 13.1689 193.497 13.5952Q192.816 14.0171 192.42 14.7729Q192.025 15.5288 192.025 16.5352Q192.025 17.5459 192.42 18.3018Q192.816 19.0576 193.497 19.4795Q194.182 19.9014 195.083 19.9014ZM202.033 24.9595L204.248 20.1343L203.725 20.1343L200.178 12.0703L201.818 12.0703L204.766 19.0181L207.9 12.0703L209.464 12.0703L203.615 24.9595L202.033 24.9595ZM215.282 21L219.131 14.6455L215.282 8.40088L216.991 8.40088L220.085 13.4414L223.038 8.40088L224.73 8.40088L220.88 14.7158L224.747 21L223.038 21L219.922 15.9419L216.991 21L215.282 21ZM231.534 22.8018L231.534 8.04053L233.045 8.04053L233.045 22.8018L231.534 22.8018ZM240.48 21L240.48 8.40088L244.351 8.40088Q247.682 8.40088 249.255 10.0928Q250.829 11.7847 250.829 14.7378Q250.829 17.6338 249.255 19.3169Q247.682 21 244.351 21L240.48 21ZM241.991 19.7388L244.316 19.7388Q246.148 19.7388 247.238 19.1367Q248.328 18.5347 248.794 17.4097Q249.264 16.2847 249.264 14.7378Q249.264 13.1514 248.794 12.0176Q248.328 10.8838 247.238 10.2729Q246.148 9.66211 244.316 9.66211L241.991 9.66211L241.991 19.7388ZM256.932 21.2153Q255.653 21.2153 254.664 20.6309Q253.676 20.0464 253.109 19.0049Q252.542 17.959 252.542 16.5352Q252.542 15.1333 253.1 14.0786Q253.658 13.0239 254.656 12.4395Q255.653 11.855 256.967 11.855Q258.263 11.855 259.208 12.4395Q260.153 13.0239 260.658 13.9819Q261.164 14.9355 261.164 16.0342Q261.164 16.2319 261.151 16.4297Q261.142 16.6274 261.142 16.8779L254.036 16.8779Q254.089 17.9019 254.51 18.5786Q254.932 19.2554 255.57 19.5981Q256.211 19.9365 256.932 19.9365Q257.868 19.9365 258.496 19.5059Q259.129 19.0752 259.415 18.3369L260.909 18.3369Q260.549 19.5762 259.529 20.3979Q258.514 21.2153 256.932 21.2153ZM256.932 13.1338Q255.851 13.1338 255.011 13.793Q254.176 14.4478 254.053 15.709L259.67 15.709Q259.613 14.5005 258.839 13.8193Q258.066 13.1338 256.932 13.1338ZM266.581 21.2153Q264.977 21.2153 263.913 20.4067Q262.854 19.5981 262.674 18.2095L264.221 18.2095Q264.366 18.9126 264.968 19.4268Q265.57 19.9365 266.598 19.9365Q267.552 19.9365 268 19.5322Q268.453 19.1279 268.453 18.5698Q268.453 17.7612 267.868 17.4932Q267.284 17.2207 266.22 17.0054Q265.5 16.8604 264.779 16.5923Q264.058 16.3198 263.57 15.8276Q263.087 15.3311 263.087 14.5181Q263.087 13.3491 263.961 12.6021Q264.836 11.855 266.33 11.855Q267.75 11.855 268.659 12.5669Q269.569 13.2788 269.714 14.5928L268.22 14.5928Q268.127 13.9072 267.631 13.5205Q267.139 13.1338 266.308 13.1338Q265.5 13.1338 265.056 13.4766Q264.616 13.8193 264.616 14.3774Q264.616 14.918 265.183 15.2256Q265.75 15.5288 266.726 15.7441Q267.552 15.9243 268.299 16.188Q269.046 16.4473 269.521 16.9614Q270 17.4712 270 18.4424Q270.017 19.6509 269.09 20.4331Q268.163 21.2153 266.581 21.2153ZM273.08 10.0928Q272.627 10.0928 272.329 9.79834Q272.034 9.49951 272.034 9.04688Q272.034 8.61621 272.329 8.33057Q272.627 8.04053 273.08 8.04053Q273.511 8.04053 273.814 8.33057Q274.122 8.61621 274.122 9.04688Q274.122 9.49951 273.814 9.79834Q273.511 10.0928 273.08 10.0928ZM272.32 21L272.32 12.0703L273.836 12.0703L273.836 21L272.32 21ZM279.988 18.1919Q279.232 18.1919 278.604 17.9941L277.703 18.8379Q277.901 18.9829 278.195 19.084Q278.494 19.1807 279.052 19.2642Q279.61 19.3433 280.621 19.4355Q282.418 19.5586 283.192 20.2617Q283.97 20.9648 283.97 22.0986Q283.97 22.8721 283.543 23.5708Q283.121 24.2739 282.247 24.7222Q281.377 25.1748 280.01 25.1748Q278.802 25.1748 277.866 24.8584Q276.929 24.5464 276.407 23.9048Q275.888 23.2676 275.888 22.2964Q275.888 21.791 276.156 21.2065Q276.424 20.6221 277.162 20.0991Q276.767 19.9365 276.486 19.7476Q276.209 19.5586 275.976 19.3257L275.976 18.9126L277.505 17.4009Q276.446 16.5 276.446 15.0234Q276.446 14.1401 276.859 13.4238Q277.272 12.7031 278.063 12.2812Q278.854 11.855 279.988 11.855Q280.766 11.855 281.394 12.0703L284.686 12.0703L284.686 13.2041L283.016 13.2788Q283.534 14.0347 283.534 15.0234Q283.534 15.9067 283.113 16.6274Q282.691 17.3481 281.904 17.77Q281.122 18.1919 279.988 18.1919ZM279.988 16.9482Q280.946 16.9482 281.513 16.4561Q282.08 15.9595 282.08 15.0234Q282.08 14.105 281.513 13.6128Q280.946 13.1162 279.988 13.1162Q279.017 13.1162 278.45 13.6128Q277.883 14.105 277.883 15.0234Q277.883 15.9595 278.45 16.4561Q279.017 16.9482 279.988 16.9482ZM277.36 22.1514Q277.36 23.0522 278.116 23.4917Q278.872 23.9355 280.01 23.9355Q281.122 23.9355 281.799 23.4478Q282.475 22.96 282.475 22.1514Q282.475 21.5757 282.005 21.1538Q281.539 20.7319 280.278 20.6572Q279.289 20.5869 278.569 20.4771Q277.83 20.8726 277.593 21.3296Q277.36 21.791 277.36 22.1514ZM286.4 21L286.4 12.0703L287.766 12.0703L287.854 13.6743Q288.289 12.8262 289.098 12.3428Q289.906 11.855 290.935 11.855Q292.517 11.855 293.462 12.8218Q294.406 13.7842 294.406 15.7793L294.406 21L292.895 21L292.895 15.9419Q292.895 13.1514 290.592 13.1514Q289.441 13.1514 288.676 13.9907Q287.911 14.8257 287.911 16.3726L287.911 21L286.4 21ZM300.708 21.2153Q299.429 21.2153 298.44 20.6309Q297.452 20.0464 296.885 19.0049Q296.318 17.959 296.318 16.5352Q296.318 15.1333 296.876 14.0786Q297.434 13.0239 298.431 12.4395Q299.429 11.855 300.743 11.855Q302.039 11.855 302.984 12.4395Q303.929 13.0239 304.434 13.9819Q304.94 14.9355 304.94 16.0342Q304.94 16.2319 304.927 16.4297Q304.918 16.6274 304.918 16.8779L297.812 16.8779Q297.865 17.9019 298.286 18.5786Q298.708 19.2554 299.346 19.5981Q299.987 19.9365 300.708 19.9365Q301.644 19.9365 302.272 19.5059Q302.905 19.0752 303.191 18.3369L304.685 18.3369Q304.325 19.5762 303.305 20.3979Q302.29 21.2153 300.708 21.2153ZM300.708 13.1338Q299.627 13.1338 298.787 13.793Q297.952 14.4478 297.829 15.709L303.446 15.709Q303.389 14.5005 302.615 13.8193Q301.842 13.1338 300.708 13.1338ZM310.985 21.2153Q309.653 21.2153 308.652 20.6045Q307.654 19.9937 307.105 18.9302Q306.56 17.8667 306.56 16.5176Q306.56 15.1685 307.118 14.1182Q307.676 13.0635 308.665 12.4614Q309.653 11.855 311.003 11.855Q312.101 11.855 312.945 12.3076Q313.793 12.7559 314.263 13.5645L314.263 8.04053L315.775 8.04053L315.775 21L314.404 21L314.263 19.5234Q313.828 20.1738 313.02 20.6968Q312.211 21.2153 310.985 21.2153ZM311.148 19.9014Q312.048 19.9014 312.738 19.4795Q313.433 19.0576 313.819 18.3018Q314.206 17.5459 314.206 16.5352Q314.206 15.5288 313.819 14.7729Q313.433 14.0171 312.738 13.5952Q312.048 13.1689 311.148 13.1689Q310.264 13.1689 309.57 13.5952Q308.88 14.0171 308.493 14.7729Q308.107 15.5288 308.107 16.5352Q308.107 17.5459 308.493 18.3018Q308.88 19.0576 309.57 19.4795Q310.264 19.9014 311.148 19.9014ZM327.78 21.2153Q326.681 21.2153 325.824 20.7671Q324.972 20.3145 324.523 19.5059L324.378 21L323.012 21L323.012 8.04053L324.523 8.04053L324.523 13.5469Q324.954 12.9009 325.754 12.3779Q326.558 11.855 327.797 11.855Q329.129 11.855 330.118 12.4702Q331.111 13.0811 331.66 14.1445Q332.209 15.2036 332.209 16.5527Q332.209 17.9019 331.66 18.9565Q331.111 20.0112 330.109 20.6133Q329.111 21.2153 327.78 21.2153ZM327.617 19.9014Q328.518 19.9014 329.199 19.4795Q329.885 19.0576 330.28 18.3018Q330.68 17.5459 330.68 16.5352Q330.68 15.5288 330.28 14.7729Q329.885 14.0171 329.199 13.5952Q328.518 13.1689 327.617 13.1689Q326.716 13.1689 326.031 13.5952Q325.35 14.0171 324.954 14.7729Q324.559 15.5288 324.559 16.5352Q324.559 17.5459 324.954 18.3018Q325.35 19.0576 326.031 19.4795Q326.716 19.9014 327.617 19.9014ZM334.567 24.9595L336.782 20.1343L336.259 20.1343L332.712 12.0703L334.352 12.0703L337.3 19.0181L340.434 12.0703L341.998 12.0703L336.149 24.9595L334.567 24.9595Z" fill="#6E6E6E" fill-opacity="1.000000" fill-rule="evenodd"/>
</svg>
