<svg width="344.000000" height="36.000000" viewBox="0 0 344 36" fill="none" xmlns="http://www.w3.org/2000/svg" xmlns:xlink="http://www.w3.org/1999/xlink">
	<desc>
			Created with Pixso.
	</desc>
	<defs/>
	<rect id="Rectangle" x="116.000000" rx="8.000000" width="36.000000" height="36.000000" fill="#090909" fill-opacity="1.000000"/>
	<path id="" d="M132.102 24L125.879 24L125.879 11.2031L132.102 11.2031L132.102 24ZM131.627 23.2617L131.627 11.9502L129.219 17.6016L131.627 23.2617ZM126.354 12.0557L126.354 23.1562L128.709 17.6016L126.354 12.0557ZM126.705 23.5254L131.231 23.5254L128.964 18.1992L126.705 23.5254ZM128.964 17.0039L131.231 11.6777L126.705 11.6777L128.964 17.0039Z" fill="#FFFFFF" fill-opacity="1.000000" fill-rule="evenodd"/>
	<rect id="Rectangle" x="212.000000" rx="8.000000" width="36.000000" height="36.000000" fill="#090909" fill-opacity="1.000000"/>
	<path id="" d="M228.102 24L221.879 24L221.879 11.2031L228.102 11.2031L228.102 24ZM227.627 23.2617L227.627 11.9502L225.219 17.6016L227.627 23.2617ZM222.354 12.0557L222.354 23.1562L224.709 17.6016L222.354 12.0557ZM222.705 23.5254L227.231 23.5254L224.964 18.1992L222.705 23.5254ZM224.964 17.0039L227.231 11.6777L222.705 11.6777L224.964 17.0039Z" fill="#FFFFFF" fill-opacity="1.000000" fill-rule="evenodd"/>
	<rect id="Rectangle" x="308.000000" rx="8.000000" width="36.000000" height="36.000000" fill="#090909" fill-opacity="1.000000"/>
	<path id="" d="M324.102 24L317.879 24L317.879 11.2031L324.102 11.2031L324.102 24ZM323.627 23.2617L323.627 11.9502L321.219 17.6016L323.627 23.2617ZM318.354 12.0557L318.354 23.1562L320.709 17.6016L318.354 12.0557ZM318.705 23.5254L323.231 23.5254L320.964 18.1992L318.705 23.5254ZM320.964 17.0039L323.231 11.6777L318.705 11.6777L320.964 17.0039Z" fill="#FFFFFF" fill-opacity="1.000000" fill-rule="evenodd"/>
	<rect id="Rectangle" x="68.000000" rx="8.000000" width="36.000000" height="36.000000" fill="#090909" fill-opacity="1.000000"/>
	<path id="" d="M84.1016 24L77.8789 24L77.8789 11.2031L84.1016 11.2031L84.1016 24ZM83.627 23.2617L83.627 11.9502L81.2188 17.6016L83.627 23.2617ZM78.3535 12.0557L78.3535 23.1562L80.709 17.6016L78.3535 12.0557ZM78.7051 23.5254L83.2314 23.5254L80.9639 18.1992L78.7051 23.5254ZM80.9639 17.0039L83.2314 11.6777L78.7051 11.6777L80.9639 17.0039Z" fill="#FFFFFF" fill-opacity="1.000000" fill-rule="evenodd"/>
	<rect id="Rectangle" x="260.000000" rx="8.000000" width="36.000000" height="36.000000" fill="#090909" fill-opacity="1.000000"/>
	<path id="" d="M276.102 24L269.879 24L269.879 11.2031L276.102 11.2031L276.102 24ZM275.627 23.2617L275.627 11.9502L273.219 17.6016L275.627 23.2617ZM270.354 12.0557L270.354 23.1562L272.709 17.6016L270.354 12.0557ZM270.705 23.5254L275.231 23.5254L272.964 18.1992L270.705 23.5254ZM272.964 17.0039L275.231 11.6777L270.705 11.6777L272.964 17.0039Z" fill="#FFFFFF" fill-opacity="1.000000" fill-rule="evenodd"/>
	<rect id="Rectangle" x="164.000000" rx="8.000000" width="36.000000" height="36.000000" fill="#090909" fill-opacity="1.000000"/>
	<path id="" d="M180.102 24L173.879 24L173.879 11.2031L180.102 11.2031L180.102 24ZM179.627 23.2617L179.627 11.9502L177.219 17.6016L179.627 23.2617ZM174.354 12.0557L174.354 23.1562L176.709 17.6016L174.354 12.0557ZM174.705 23.5254L179.231 23.5254L176.964 18.1992L174.705 23.5254ZM176.964 17.0039L179.231 11.6777L174.705 11.6777L176.964 17.0039Z" fill="#FFFFFF" fill-opacity="1.000000" fill-rule="evenodd"/>
</svg>
